<svg id="Layer_1" data-name="Layer 1" xmlns="http://www.w3.org/2000/svg" viewBox="0 0 829.06 260"><defs><style>.cls-1{fill:#f25ca2;}.cls-2{fill:#fff;}</style></defs><rect class="cls-1" x="-0.02" y="0.09" width="829" height="260" rx="64"/><path class="cls-2" d="M95.66,192.28,165.81,74.13h-64v-26H214.64v3.48l-69.75,118h67.69v26.26H95.66Z"/><path class="cls-2" d="M331.4,113.26a113.56,113.56,0,0,1,.77,14.82v67.69H307.76V182.23A45.07,45.07,0,0,1,291.56,195q-8.82,3.9-21.54,3.9-11.49,0-19.85-4.46a31,31,0,0,1-12.71-12.16,33.88,33.88,0,0,1-4.36-17q0-12.11,5.64-20.41t18.56-13a105.14,105.14,0,0,1,17.54-4.56q10.35-1.9,29.85-4.77-.82-7.8-5.7-11.44t-14.61-3.64a28.88,28.88,0,0,0-13.44,3.28,17.37,17.37,0,0,0-8.72,10.26l-25.23-8A41.33,41.33,0,0,1,253.2,90.23q11.9-8.31,31.18-8.31,32.72,0,43.28,20.11A32.92,32.92,0,0,1,331.4,113.26ZM304.48,145q-14.46,2.46-21.23,3.9a80.3,80.3,0,0,0-11.39,3.18q-6,2.46-8.76,5.49a10.39,10.39,0,0,0-2.72,7.23,10.62,10.62,0,0,0,4.15,8.87q4.16,3.22,11.44,3.23a28.74,28.74,0,0,0,21-8.41,25.84,25.84,0,0,0,4.67-6.36Q304.28,156.7,304.48,145Z"/><path class="cls-2" d="M427.35,85h27.9L392.68,245H366.84l18.26-50.15L340.38,85H369.3l29.13,75.39Z"/><path class="cls-2" d="M497.56,166.44q6.62,6.36,17.79,6.36a26.44,26.44,0,0,0,14-3.59,22.87,22.87,0,0,0,9-10.36l27.89,8A50,50,0,0,1,554.63,184a51.35,51.35,0,0,1-17.23,11,55.73,55.73,0,0,1-20.41,3.8q-16.82,0-29.89-7.28a52,52,0,0,1-20.41-20.31,59,59,0,0,1-7.34-29.44q0-17.85,7.13-31.43a51.47,51.47,0,0,1,19.85-21q12.71-7.44,29-7.44,16,0,27.8,7.08a46.48,46.48,0,0,1,18.1,20.1q6.3,13,6.31,30.57,0,2.76-.41,8.51H489.4Q490.95,160.08,497.56,166.44Zm-7.44-39h48.82q-1.44-11.17-6.82-16.25t-15.54-5.08Q494.53,106.13,490.12,127.46Z"/><path class="cls-2" d="M590.22,48.08h28.31v90.25L656.07,85h34.46l-40,55.39,42.67,55.38H656.89l-38.36-53.33v53.33H590Z"/><path class="cls-2" d="M705.5,45h27.9V69.62H705.5Zm0,40h27.9V195.77H705.5Z"/></svg>