<svg id="Layer_1" data-name="Layer 1" xmlns="http://www.w3.org/2000/svg" viewBox="0 0 800 256"><defs><style>.cls-1{fill:#fff;}.cls-2{fill:#faae41;}.cls-3{fill:#d3202b;}.cls-4{fill:#ca6043;}.cls-5{fill:#e97733;}.cls-6{fill:#e19458;}.cls-7{fill:#e66328;}.cls-8{fill:#f39521;}.cls-9{fill:#f0592b;}.cls-10{fill:#ec3e37;}.cls-11{fill:#e52833;}.cls-12{fill:#d0222b;}.cls-13{fill:#bf222b;}.cls-14{fill:#e60a80;}.cls-15{fill:#bc1d81;}.cls-16{fill:#ee568d;}.cls-17{fill:#c91a88;}.cls-18{fill:#f49321;}.cls-19{fill:#eb3f2b;}.cls-20{fill:#9c2474;}.cls-21{fill:#682161;}.cls-22{fill:#822265;}.cls-23{fill:#8e2b8c;}.cls-24{fill:#7a2f8d;}.cls-25{fill:#66348f;}.cls-26{fill:#522c73;}.cls-27{fill:#fadb1c;}.cls-28{fill:#b3d23d;}.cls-29{fill:#7dc143;}.cls-30{fill:#59a747;}.cls-31{fill:#8bd1e5;}.cls-32{fill:#34c3ed;}.cls-33{fill:#21abdf;}.cls-34{fill:#356bb1;}.cls-35{fill:#4c519f;}.cls-36{fill:#2d3686;}.cls-37{fill:#ad1f29;}</style></defs><path class="cls-1" d="M258.46,166V98.67h17.08q28.08,0,28.08,20.36,0,11.09-7.53,16.59-6.66,4.83-18.43,4.83H272V166ZM272,109.28v20.55h4.72q12.84,0,12.84-10,0-10.51-12.84-10.52Z"/><path class="cls-1" d="M312.4,166v-49.7h12.93V166Zm.29-64.94a6.25,6.25,0,1,1,1.83,4.34A5.94,5.94,0,0,1,312.69,101.08Z"/><path class="cls-1" d="M350.22,140l-15.34-23.65h15.25l9.74,16.21,9.56-16.21h13.7L368.27,140,385.06,166H369.62l-11.1-18.53L347.33,166H333.14Z"/><path class="cls-1" d="M431.47,152.7l1,10.52a34.75,34.75,0,0,1-17.08,4q-12.36,0-19.16-6.76t-6.8-19q0-11.39,5.79-18.52,6.18-7.73,17.27-7.72,13,0,18.72,8.49,4.92,7.23,4.92,21.52H401.75a12.68,12.68,0,0,0,4.25,9.21,14.66,14.66,0,0,0,9.94,3.33Q422.5,157.72,431.47,152.7Zm-29.72-16.4h22q-.67-11.67-10.52-11.68Q402.82,124.62,401.75,136.3Z"/><path class="cls-1" d="M446.52,166V98.47l12.93-9.65V166Z"/><path class="cls-1" d="M501,166V98.67h21.62l16,51h.19l16-51H576.5V166H563.57V110.44h-.19L545.24,166H532.31l-18.14-55.58H514V166Z"/><path class="cls-1" d="M629.86,152.7l1,10.52a34.75,34.75,0,0,1-17.08,4q-12.36,0-19.16-6.76t-6.8-19q0-11.39,5.79-18.52,6.18-7.73,17.27-7.72,13,0,18.72,8.49,4.92,7.23,4.92,21.52H600.14a12.68,12.68,0,0,0,4.25,9.21,14.66,14.66,0,0,0,9.94,3.33Q620.89,157.72,629.86,152.7Zm-29.72-16.4h22q-.67-11.67-10.52-11.68Q601.21,124.62,600.14,136.3Z"/><path class="cls-1" d="M677.82,166v-5.6h-.19q-5.42,6.77-15.25,6.76-10.71,0-16.11-8-4.74-6.85-4.73-18.14t4.73-18q5.4-7.82,16.11-7.81a18.3,18.3,0,0,1,14.86,6.94h.19V98.47l12.93-9.65V166Zm-22.77-25a22.34,22.34,0,0,0,2.31,10.61q2.8,5.51,8.59,5.5a9.6,9.6,0,0,0,8.88-5.4A21.48,21.48,0,0,0,677.34,141a19.84,19.84,0,0,0-2.71-10.52q-3.18-5.31-8.87-5.31t-8.49,5.41A22.15,22.15,0,0,0,655.05,141Z"/><path class="cls-1" d="M703.87,166v-49.7H716.8V166Zm.29-64.94a6.25,6.25,0,1,1,1.83,4.34A5.94,5.94,0,0,1,704.16,101.08Z"/><path class="cls-1" d="M737.93,130l-.38-11.1a40.87,40.87,0,0,1,17.27-3.76q10.71,0,14,4.92,2.61,4,2.61,16v6.36q0,5,.19,12.45.28,3.57.87,11.1H760.8q-.19-1-.58-7.43a16,16,0,0,1-6.5,6.27,18.53,18.53,0,0,1-8.93,2.32,19,19,0,0,1-12-3.86,13.08,13.08,0,0,1-5.43-10.91q0-10,8.49-14.18,5.88-2.89,16.69-2.9h7.14c0-5-.09-7.81-.29-8.39-.64-1.55-2.67-2.32-6.07-2.32A24.92,24.92,0,0,0,737.93,130Zm1.74,21.61q0,6.08,8.2,6.08,7.73,0,10.62-7.14a21.07,21.07,0,0,0,1.15-7.53h-5.59Q739.67,143.05,739.67,151.64Z"/><polygon class="cls-2" points="93.63 108.7 126.84 89.32 159.65 108.7 126.84 127.68 93.63 108.7"/><polygon class="cls-3" points="93.63 146.74 126.64 165.64 126.84 127.68 93.63 108.7 93.63 146.74"/><polygon class="cls-4" points="159.65 146.98 159.65 108.7 126.84 127.68 126.64 165.64 159.65 146.98"/><polygon class="cls-5" points="27.52 70.58 60.66 89.32 60.66 203.93 27.52 184.78 27.52 70.58"/><polygon class="cls-6" points="126.88 51.14 60.66 89.32 27.52 70.58 126.76 13 159.56 32.07 225.51 70.42 193.03 89.32 126.88 51.14"/><polygon class="cls-7" points="193.03 165.64 193.03 89.32 225.51 70.42 226.16 184.78 126.84 242.36 126.64 203.93 193.03 165.64"/><polygon class="cls-5" points="93.63 184.62 126.64 203.93 126.84 242.36 93.47 222.9 93.63 184.62"/><polygon class="cls-8" points="126.76 13 126.88 51.14 159.56 32.07 126.76 13"/><polygon class="cls-9" points="126.88 51.14 159.56 32.07 159.56 70 126.88 51.14"/><polygon class="cls-10" points="159.56 70 192.18 51.03 159.56 32.07 159.56 70"/><polygon class="cls-11" points="192.18 51.03 193.03 89.32 159.56 70 192.18 51.03"/><polygon class="cls-12" points="192.18 51.03 193.03 89.32 225.51 70.42 192.18 51.03"/><polygon class="cls-13" points="225.51 70.42 193.03 89.32 225.73 108.7 225.51 70.42"/><polygon class="cls-14" points="225.51 108.78 193.03 127.68 225.95 147.06 225.51 108.78"/><polygon class="cls-15" points="225.95 147.06 193.03 165.64 226.16 184.96 225.95 147.06"/><polygon class="cls-16" points="225.73 108.7 193.03 89.32 193.03 127.68 225.73 108.7"/><polygon class="cls-17" points="225.95 147.06 193.03 127.64 193.03 165.64 225.95 147.06"/><polygon class="cls-18" points="126.84 89.32 126.84 127.68 159.65 108.7 126.84 89.32"/><polygon class="cls-11" points="126.84 127.68 126.64 165.64 159.65 147.06 126.84 127.68"/><polyline class="cls-19" points="159.65 146.98 126.84 127.68 159.65 108.7"/><polygon class="cls-20" points="193.03 165.64 192.81 203.8 226.16 184.96 193.03 165.64"/><polygon class="cls-21" points="159.65 184.89 159.65 223.33 193.03 203.99 159.65 184.89"/><polygon class="cls-22" points="193.03 165.64 159.65 184.89 193.03 203.99 193.03 165.64"/><polygon class="cls-23" points="159.65 184.89 126.64 203.93 159.65 223.33 159.65 184.89"/><polygon class="cls-24" points="126.64 203.93 126.64 243 159.65 223.33 126.64 203.93"/><polygon class="cls-25" points="126.64 203.93 93.47 222.9 126.84 242.36 126.64 203.93"/><polygon class="cls-26" points="93.63 184.62 126.64 203.93 93.47 222.9 93.63 184.62"/><polygon class="cls-2" points="126.88 51.14 126.76 13 93.63 32.23 126.88 51.14"/><polygon class="cls-27" points="93.63 32.23 126.88 51.14 93.63 70.31 93.63 32.23"/><polygon class="cls-28" points="93.63 32.23 93.63 70.31 60.66 51.36 93.63 32.23"/><polygon class="cls-29" points="60.66 51.36 93.63 70.31 60.66 89.32 60.66 51.36"/><polygon class="cls-30" points="27.52 70.58 60.66 51.36 60.66 89.32 27.52 70.58"/><polygon class="cls-31" points="27.52 70.58 60.66 89.32 27.52 108.7 27.52 70.58"/><polygon class="cls-32" points="60.66 89.32 60.66 127.68 27.52 108.7 60.66 89.32"/><polygon class="cls-33" points="27.52 108.7 60.66 127.68 27.52 146.66 27.52 108.7"/><polygon class="cls-34" points="27.52 146.66 60.66 127.68 60.66 165.64 27.52 146.66"/><polygon class="cls-35" points="27.52 146.66 27.52 184.78 60.66 165.64 27.52 146.66"/><polygon class="cls-36" points="60.66 165.64 60.66 203.93 27.52 184.78 60.66 165.64"/><polygon class="cls-37" points="93.63 108.7 126.84 127.68 93.63 146.74 93.63 108.7"/></svg>