<svg id="Layer_1" data-name="Layer 1" xmlns="http://www.w3.org/2000/svg" viewBox="0 0 256 256"><defs><style>.cls-1{fill:none;}.cls-2{fill:#faae41;}.cls-3{fill:#d3202b;}.cls-4{fill:#ca6043;}.cls-5{fill:#e97733;}.cls-6{fill:#e19458;}.cls-7{fill:#e66328;}.cls-8{fill:#f39521;}.cls-9{fill:#f0592b;}.cls-10{fill:#ec3e37;}.cls-11{fill:#e52833;}.cls-12{fill:#d0222b;}.cls-13{fill:#bf222b;}.cls-14{fill:#e60a80;}.cls-15{fill:#bc1d81;}.cls-16{fill:#ee568d;}.cls-17{fill:#c91a88;}.cls-18{fill:#f49321;}.cls-19{fill:#eb3f2b;}.cls-20{fill:#9c2474;}.cls-21{fill:#682161;}.cls-22{fill:#822265;}.cls-23{fill:#8e2b8c;}.cls-24{fill:#7a2f8d;}.cls-25{fill:#66348f;}.cls-26{fill:#522c73;}.cls-27{fill:#fadb1c;}.cls-28{fill:#b3d23d;}.cls-29{fill:#7dc143;}.cls-30{fill:#59a747;}.cls-31{fill:#8bd1e5;}.cls-32{fill:#34c3ed;}.cls-33{fill:#21abdf;}.cls-34{fill:#356bb1;}.cls-35{fill:#4c519f;}.cls-36{fill:#2d3686;}.cls-37{fill:#ad1f29;}</style></defs><polygon class="cls-1" points="27 185.74 27 69.61 127.92 11.05 228.35 69.44 229 185.74 128 244.29 94.06 224.5 27 185.74"/><polygon class="cls-2" points="94.22 108.37 128 88.66 161.37 108.37 128 127.67 94.22 108.37"/><polygon class="cls-3" points="94.22 147.06 127.8 166.27 128 127.67 94.22 108.37 94.22 147.06"/><polygon class="cls-4" points="161.37 147.3 161.37 108.37 128 127.67 127.8 166.27 161.37 147.3"/><polygon class="cls-5" points="27 69.61 60.69 88.66 60.69 205.21 27 185.74 27 69.61"/><polygon class="cls-6" points="128.04 49.84 60.69 88.66 27 69.61 127.92 11.05 161.27 30.45 228.35 69.44 195.31 88.66 128.04 49.84"/><polygon class="cls-7" points="195.31 166.27 195.31 88.66 228.35 69.44 229 185.74 128 244.29 127.8 205.21 195.31 166.27"/><polygon class="cls-5" points="94.22 185.57 127.8 205.21 128 244.29 94.06 224.5 94.22 185.57"/><polygon class="cls-8" points="127.92 11.05 128.04 49.84 161.27 30.45 127.92 11.05"/><polygon class="cls-9" points="128.04 49.84 161.27 30.45 161.27 69.02 128.04 49.84"/><polygon class="cls-10" points="161.27 69.02 194.44 49.73 161.27 30.45 161.27 69.02"/><polygon class="cls-11" points="194.44 49.73 195.31 88.66 161.27 69.02 194.44 49.73"/><polygon class="cls-12" points="194.44 49.73 195.31 88.66 228.35 69.44 194.44 49.73"/><polygon class="cls-13" points="228.35 69.44 195.31 88.66 228.56 108.37 228.35 69.44"/><polygon class="cls-14" points="228.35 108.45 195.31 127.67 228.78 147.38 228.35 108.45"/><polygon class="cls-15" points="228.78 147.38 195.31 166.27 229 185.93 228.78 147.38"/><polygon class="cls-16" points="228.56 108.37 195.31 88.66 195.31 127.67 228.56 108.37"/><polygon class="cls-17" points="228.78 147.38 195.31 127.63 195.31 166.27 228.78 147.38"/><polygon class="cls-18" points="128 88.66 128 127.67 161.37 108.37 128 88.66"/><polygon class="cls-11" points="128 127.67 127.8 166.27 161.37 147.38 128 127.67"/><polyline class="cls-19" points="161.37 147.3 128 127.67 161.37 108.37"/><polygon class="cls-20" points="195.31 166.27 195.09 205.08 229 185.93 195.31 166.27"/><polygon class="cls-21" points="161.37 185.86 161.37 224.95 195.31 205.27 161.37 185.86"/><polygon class="cls-22" points="195.31 166.27 161.37 185.85 195.31 205.27 195.31 166.27"/><polygon class="cls-23" points="161.37 185.85 127.8 205.21 161.37 224.95 161.37 185.85"/><polygon class="cls-24" points="127.8 205.21 127.8 244.95 161.37 224.95 127.8 205.21"/><polygon class="cls-25" points="127.8 205.21 94.06 224.5 128 244.29 127.8 205.21"/><polygon class="cls-26" points="94.22 185.57 127.8 205.21 94.06 224.5 94.22 185.57"/><polygon class="cls-2" points="128.04 49.84 127.92 11.05 94.22 30.6 128.04 49.84"/><polygon class="cls-27" points="94.22 30.6 128.04 49.84 94.22 69.33 94.22 30.6"/><polygon class="cls-28" points="94.22 30.6 94.22 69.33 60.69 50.06 94.22 30.6"/><polygon class="cls-29" points="60.69 50.06 94.22 69.33 60.69 88.66 60.69 50.06"/><polygon class="cls-30" points="27 69.61 60.69 50.06 60.69 88.66 27 69.61"/><polygon class="cls-31" points="27 69.61 60.69 88.66 27 108.37 27 69.61"/><polygon class="cls-32" points="60.69 88.66 60.69 127.67 27 108.37 60.69 88.66"/><polygon class="cls-33" points="27 108.37 60.69 127.68 27 146.97 27 108.37"/><polygon class="cls-34" points="27 146.97 60.69 127.67 60.69 166.27 27 146.97"/><polygon class="cls-35" points="27 146.97 27 185.74 60.69 166.27 27 146.97"/><polygon class="cls-36" points="60.69 166.27 60.69 205.21 27 185.74 60.69 166.27"/><polygon class="cls-37" points="94.22 108.37 128 127.67 94.22 147.06 94.22 108.37"/></svg>