<svg id="Layer_1" data-name="Layer 1" xmlns="http://www.w3.org/2000/svg" viewBox="0 0 256 256"><defs><style>.cls-1{fill:#fff;}</style></defs><polygon class="cls-1" points="94.22 108.37 128 88.66 161.37 108.37 128 127.67 94.22 108.37"/><polygon class="cls-1" points="94.22 147.06 127.8 166.27 128 127.67 94.22 108.37 94.22 147.06"/><polygon class="cls-1" points="161.37 147.3 161.37 108.37 128 127.67 127.8 166.27 161.37 147.3"/><polygon class="cls-1" points="27 69.61 60.69 88.66 60.69 205.21 27 185.74 27 69.61"/><polygon class="cls-1" points="128.04 49.84 60.69 88.66 27 69.61 127.92 11.05 161.27 30.45 228.35 69.44 195.31 88.66 128.04 49.84"/><polygon class="cls-1" points="195.31 166.27 195.31 88.66 228.35 69.44 229 185.74 128 244.29 127.8 205.21 195.31 166.27"/><polygon class="cls-1" points="94.22 185.57 127.8 205.21 128 244.29 94.06 224.5 94.22 185.57"/><polygon class="cls-1" points="127.92 11.05 128.04 49.84 161.27 30.45 127.92 11.05"/><polygon class="cls-1" points="128.04 49.84 161.27 30.45 161.27 69.02 128.04 49.84"/><polygon class="cls-1" points="161.27 69.02 194.44 49.73 161.27 30.45 161.27 69.02"/><polygon class="cls-1" points="194.44 49.73 195.31 88.66 161.27 69.02 194.44 49.73"/><polygon class="cls-1" points="194.44 49.73 195.31 88.66 228.35 69.44 194.44 49.73"/><polygon class="cls-1" points="228.35 69.44 195.31 88.66 228.56 108.37 228.35 69.44"/><polygon class="cls-1" points="228.35 108.45 195.31 127.67 228.78 147.38 228.35 108.45"/><polygon class="cls-1" points="228.78 147.38 195.31 166.27 229 185.93 228.78 147.38"/><polygon class="cls-1" points="228.56 108.37 195.31 88.66 195.31 127.67 228.56 108.37"/><polygon class="cls-1" points="228.78 147.38 195.31 127.63 195.31 166.27 228.78 147.38"/><polygon class="cls-1" points="128 88.66 128 127.67 161.37 108.37 128 88.66"/><polygon class="cls-1" points="128 127.67 127.8 166.27 161.37 147.38 128 127.67"/><polyline class="cls-1" points="161.37 147.3 128 127.67 161.37 108.37"/><polygon class="cls-1" points="195.31 166.27 195.09 205.08 229 185.93 195.31 166.27"/><polygon class="cls-1" points="161.37 185.86 161.37 224.95 195.31 205.27 161.37 185.86"/><polygon class="cls-1" points="195.31 166.27 161.37 185.85 195.31 205.27 195.31 166.27"/><polygon class="cls-1" points="161.37 185.85 127.8 205.21 161.37 224.95 161.37 185.85"/><polygon class="cls-1" points="127.8 205.21 127.8 244.95 161.37 224.95 127.8 205.21"/><polygon class="cls-1" points="127.8 205.21 94.06 224.5 128 244.29 127.8 205.21"/><polygon class="cls-1" points="94.22 185.57 127.8 205.21 94.06 224.5 94.22 185.57"/><polygon class="cls-1" points="128.04 49.84 127.92 11.05 94.22 30.6 128.04 49.84"/><polygon class="cls-1" points="94.22 30.6 128.04 49.84 94.22 69.33 94.22 30.6"/><polygon class="cls-1" points="94.22 30.6 94.22 69.33 60.69 50.06 94.22 30.6"/><polygon class="cls-1" points="60.69 50.06 94.22 69.33 60.69 88.66 60.69 50.06"/><polygon class="cls-1" points="27 69.61 60.69 50.06 60.69 88.66 27 69.61"/><polygon class="cls-1" points="27 69.61 60.69 88.66 27 108.37 27 69.61"/><polygon class="cls-1" points="60.69 88.66 60.69 127.67 27 108.37 60.69 88.66"/><polygon class="cls-1" points="27 108.37 60.69 127.68 27 146.97 27 108.37"/><polygon class="cls-1" points="27 146.97 60.69 127.67 60.69 166.27 27 146.97"/><polygon class="cls-1" points="27 146.97 27 185.74 60.69 166.27 27 146.97"/><polygon class="cls-1" points="60.69 166.27 60.69 205.21 27 185.74 60.69 166.27"/><polygon class="cls-1" points="94.22 108.37 128 127.67 94.22 147.06 94.22 108.37"/></svg>