<svg id="Layer_1" data-name="Layer 1" xmlns="http://www.w3.org/2000/svg" viewBox="0 0 800 256"><defs><style>.cls-1{fill:#fff;}.cls-2{fill:#faae41;}.cls-3{fill:#d3202b;}.cls-4{fill:#ca6043;}.cls-5{fill:#e97733;}.cls-6{fill:#e19458;}.cls-7{fill:#e66328;}.cls-8{fill:#f39521;}.cls-9{fill:#f0592b;}.cls-10{fill:#ec3e37;}.cls-11{fill:#e52833;}.cls-12{fill:#d0222b;}.cls-13{fill:#bf222b;}.cls-14{fill:#e60a80;}.cls-15{fill:#bc1d81;}.cls-16{fill:#ee568d;}.cls-17{fill:#c91a88;}.cls-18{fill:#f49321;}.cls-19{fill:#eb3f2b;}.cls-20{fill:#9c2474;}.cls-21{fill:#682161;}.cls-22{fill:#822265;}.cls-23{fill:#8e2b8c;}.cls-24{fill:#7a2f8d;}.cls-25{fill:#66348f;}.cls-26{fill:#522c73;}.cls-27{fill:#fadb1c;}.cls-28{fill:#b3d23d;}.cls-29{fill:#7dc143;}.cls-30{fill:#59a747;}.cls-31{fill:#8bd1e5;}.cls-32{fill:#34c3ed;}.cls-33{fill:#21abdf;}.cls-34{fill:#356bb1;}.cls-35{fill:#4c519f;}.cls-36{fill:#2d3686;}.cls-37{fill:#ad1f29;}</style></defs><path class="cls-1" d="M279,169.26l-10.73,28.25h-3l-10.52-28.25h3l9.07,25.39,9.42-25.39Z"/><path class="cls-1" d="M282.32,169.67c0-1.13.46-1.7,1.37-1.7s1.34.57,1.34,1.7-.45,1.7-1.34,1.7S282.32,170.8,282.32,169.67Zm0,27.84V176.87H285v20.64Z"/><path class="cls-1" d="M289.56,197l.65-2.51a11.18,11.18,0,0,0,5,1.29,5.29,5.29,0,0,0,3.12-.88,3.22,3.22,0,0,0,1.45-2.79q0-2.05-2.6-3.47l-4.73-2.43a5,5,0,0,1-2.58-4.22,5,5,0,0,1,2-4.29,7.67,7.67,0,0,1,4.69-1.34,14.3,14.3,0,0,1,5.1.93l-.64,2.22a10.19,10.19,0,0,0-4.17-1q-4.46,0-4.45,3.44c0,1,.87,2,2.63,2.84q4.49,2.22,4.89,2.51a5.61,5.61,0,0,1,2.63,4.77,5.1,5.1,0,0,1-2.26,4.45,8.24,8.24,0,0,1-4.94,1.42A15.53,15.53,0,0,1,289.56,197Z"/><path class="cls-1" d="M323.24,176.87v15.79c0,2.13.05,3.75.16,4.85h-2.47v-3.68a6.81,6.81,0,0,1-6.72,4.17q-7.08,0-7.08-7.93v-13.2h2.55v12.55q0,6.39,4.89,6.39a5.31,5.31,0,0,0,4.7-2.3,8.81,8.81,0,0,0,1.42-5.22V176.87Z"/><path class="cls-1" d="M341.53,197.51V194.2a6,6,0,0,1-2.67,2.79,8.1,8.1,0,0,1-3.93,1,7.77,7.77,0,0,1-4.84-1.42,5.3,5.3,0,0,1-2-4.41,6.18,6.18,0,0,1,4.37-6.23,25.18,25.18,0,0,1,8.34-1h.49v-3.81a2.63,2.63,0,0,0-.6-2,3.3,3.3,0,0,0-2.13-.53,10.88,10.88,0,0,0-6,1.7V177.8a13.75,13.75,0,0,1,6.07-1.41c2.37,0,3.88.6,4.53,1.82q.69,1.29.69,5.87v9.1a32.62,32.62,0,0,0,.2,4.33Zm-.24-9.14v-1.26h-.73a20.34,20.34,0,0,0-6.48.77,4.25,4.25,0,0,0-3.19,4.21q0,3.72,4.29,3.72Q341.29,195.81,341.29,188.37Z"/><path class="cls-1" d="M349.87,197.51V168l2.55-2.43v32Z"/><path class="cls-1" d="M367.43,197.51,379,169.26h3.15l11.22,28.25h-2.92l-3-7.56H373.16l-3,7.56Zm19.06-10-6.11-15.63-6.18,15.63Z"/><path class="cls-1" d="M397.1,197.51v-16c0-2.08-.06-3.62-.16-4.62h2.55v4c1.2-3,3-4.45,5.36-4.45a7,7,0,0,1,1.8.24v2.67a6.27,6.27,0,0,0-1.86-.24,4.33,4.33,0,0,0-4.17,2.87,13,13,0,0,0-1,5.38v10.2Z"/><path class="cls-1" d="M419.48,176.87v2.19h-4.69v13.35c0,2.27.91,3.4,2.75,3.4a7,7,0,0,0,2.51-.48v2.1a8.33,8.33,0,0,1-3.12.57q-3.07,0-4.05-2a12.52,12.52,0,0,1-.64-4.86V179.06h-4.05v-2.19h4.05v-3.76l2.55-2.51v6.27Z"/><path class="cls-1" d="M447.2,197.51V194.2a6,6,0,0,1-2.66,2.79,8.15,8.15,0,0,1-3.93,1,7.8,7.8,0,0,1-4.85-1.42,5.3,5.3,0,0,1-2-4.41,6.16,6.16,0,0,1,4.37-6.23,25.14,25.14,0,0,1,8.34-1H447v-3.81a2.63,2.63,0,0,0-.6-2,3.26,3.26,0,0,0-2.12-.53,10.91,10.91,0,0,0-6,1.7V177.8a13.78,13.78,0,0,1,6.07-1.41c2.37,0,3.89.6,4.53,1.82q.69,1.29.69,5.87v9.1a34.46,34.46,0,0,0,.2,4.33Zm-.24-9.14v-1.26h-.73a20.23,20.23,0,0,0-6.47.77,4.26,4.26,0,0,0-3.2,4.21q0,3.72,4.29,3.72Q447,195.81,447,188.37Z"/><path class="cls-1" d="M455.58,197.51V181.73c0-2.13-.05-3.75-.16-4.86h2.47v3.69a6.79,6.79,0,0,1,6.72-4.17q7.08,0,7.08,7.93v13.19h-2.55V185q0-6.41-4.9-6.4a5.31,5.31,0,0,0-4.69,2.31,8.74,8.74,0,0,0-1.42,5.22v11.41Z"/><path class="cls-1" d="M494.44,165.54v32l-2.55-3.27a6.78,6.78,0,0,1-6.47,3.76,7.45,7.45,0,0,1-6.6-3.4,13,13,0,0,1-1.95-7.41,13.43,13.43,0,0,1,1.83-7.52q2.16-3.28,6.72-3.28a7.15,7.15,0,0,1,4.64,1.62,5.66,5.66,0,0,1,1.83,2.34l.08-12Zm-14.78,21.65a11.54,11.54,0,0,0,1.26,5.79,5.13,5.13,0,0,0,4.86,2.83,5.23,5.23,0,0,0,4.77-2.87,13,13,0,0,0,0-11.49,5.24,5.24,0,0,0-4.77-2.88,5.14,5.14,0,0,0-4.86,2.84A11.49,11.49,0,0,0,479.66,187.19Z"/><path class="cls-1" d="M512.08,197.51V169.26h7a9.39,9.39,0,0,1,6.32,2,7.58,7.58,0,0,1,2.43,6.07,7.43,7.43,0,0,1-2.63,6,9.92,9.92,0,0,1-6.4,2h-3.88v12.22Zm2.8-25.82v11.17h1.94a13.25,13.25,0,0,0,5.66-.89c1.68-.83,2.51-2.4,2.51-4.69a5.07,5.07,0,0,0-5.58-5.59Z"/><path class="cls-1" d="M530.46,187.19a11.67,11.67,0,0,1,2.39-7.65,9.91,9.91,0,0,1,14.49,0,13.48,13.48,0,0,1,0,15.3,9.89,9.89,0,0,1-14.49,0A11.63,11.63,0,0,1,530.46,187.19Zm2.79,0a10.36,10.36,0,0,0,1.58,5.91,6.46,6.46,0,0,0,10.52,0,11.84,11.84,0,0,0,0-11.82,6,6,0,0,0-5.26-2.71,5.92,5.92,0,0,0-5.22,2.71A10.19,10.19,0,0,0,533.25,187.19Z"/><path class="cls-1" d="M552.72,197l.65-2.51a11.11,11.11,0,0,0,5,1.29,5.29,5.29,0,0,0,3.12-.88,3.23,3.23,0,0,0,1.46-2.79q0-2.05-2.6-3.47l-4.74-2.43A5,5,0,0,1,553,182a5,5,0,0,1,2-4.29,7.65,7.65,0,0,1,4.69-1.34,14.39,14.39,0,0,1,5.1.93l-.65,2.22a10.19,10.19,0,0,0-4.17-1q-4.46,0-4.45,3.44c0,1,.88,2,2.63,2.84q4.5,2.22,4.9,2.51a5.63,5.63,0,0,1,2.63,4.77,5.11,5.11,0,0,1-2.27,4.45,8.21,8.21,0,0,1-4.93,1.42A15.53,15.53,0,0,1,552.72,197Z"/><path class="cls-1" d="M579.19,176.87v2.19h-4.7v13.35q0,3.41,2.75,3.4a6.94,6.94,0,0,0,2.51-.48v2.1a8.24,8.24,0,0,1-3.11.57q-3.07,0-4-2a12.47,12.47,0,0,1-.65-4.86V179.06h-4v-2.19h4v-3.76l2.55-2.51v6.27Z"/><path class="cls-1" d="M595.3,197.51V169.26h7a9.36,9.36,0,0,1,6.31,2,7.58,7.58,0,0,1,2.43,6.07,7.43,7.43,0,0,1-2.63,6,9.92,9.92,0,0,1-6.4,2h-3.88v12.22Zm2.79-25.82v11.17H600a13.33,13.33,0,0,0,5.67-.89c1.67-.83,2.51-2.4,2.51-4.69a5.08,5.08,0,0,0-5.59-5.59Z"/><path class="cls-1" d="M615.25,197.51v-16c0-2.08-.06-3.62-.16-4.62h2.55v4q1.8-4.46,5.36-4.45a7,7,0,0,1,1.8.24v2.67a6.27,6.27,0,0,0-1.86-.24,4.33,4.33,0,0,0-4.17,2.87,13,13,0,0,0-1,5.38v10.2Z"/><path class="cls-1" d="M627.15,187.19a11.67,11.67,0,0,1,2.39-7.65,9.91,9.91,0,0,1,14.49,0,13.48,13.48,0,0,1,0,15.3,9.89,9.89,0,0,1-14.49,0A11.63,11.63,0,0,1,627.15,187.19Zm2.79,0a10.36,10.36,0,0,0,1.58,5.91,6.46,6.46,0,0,0,10.52,0,11.84,11.84,0,0,0,0-11.82,6,6,0,0,0-5.26-2.71,5.92,5.92,0,0,0-5.22,2.71A10.19,10.19,0,0,0,629.94,187.19Z"/><path class="cls-1" d="M667.62,165.54v32l-2.55-3.27A6.78,6.78,0,0,1,658.6,198a7.45,7.45,0,0,1-6.59-3.4,13,13,0,0,1-2-7.41,13.43,13.43,0,0,1,1.83-7.52q2.15-3.28,6.71-3.28a7.15,7.15,0,0,1,4.64,1.62,5.66,5.66,0,0,1,1.83,2.34l.08-12Zm-14.77,21.65A11.65,11.65,0,0,0,654.1,193a5.15,5.15,0,0,0,4.86,2.83,5.23,5.23,0,0,0,4.78-2.87,13.07,13.07,0,0,0,0-11.49,5.24,5.24,0,0,0-4.78-2.88,5.16,5.16,0,0,0-4.86,2.84A11.61,11.61,0,0,0,652.85,187.19Z"/><path class="cls-1" d="M689.84,176.87v15.79c0,2.13,0,3.75.16,4.85h-2.47v-3.68a6.79,6.79,0,0,1-6.71,4.17q-7.1,0-7.09-7.93v-13.2h2.55v12.55q0,6.39,4.9,6.39a5.29,5.29,0,0,0,4.69-2.3,8.74,8.74,0,0,0,1.42-5.22V176.87Z"/><path class="cls-1" d="M709.88,177.2l-.61,2.42a10.4,10.4,0,0,0-4-1.05,7.22,7.22,0,0,0-5.83,2.51,10.49,10.49,0,0,0,0,12.1,6.8,6.8,0,0,0,5.59,2.63,12.14,12.14,0,0,0,3.84-.93l1.06,2.39a16.35,16.35,0,0,1-5.31.73,9.13,9.13,0,0,1-7.32-3.12,11.44,11.44,0,0,1-2.55-7.69,10.93,10.93,0,0,1,2.71-7.69,9.65,9.65,0,0,1,7.49-3.11A15.65,15.65,0,0,1,709.88,177.2Z"/><path class="cls-1" d="M723.11,176.87v2.19h-4.7v13.35q0,3.41,2.76,3.4a7,7,0,0,0,2.51-.48v2.1a8.33,8.33,0,0,1-3.12.57q-3.07,0-4-2a12.47,12.47,0,0,1-.65-4.86V179.06h-4v-2.19h4v-3.76l2.55-2.51v6.27Z"/><path class="cls-1" d="M727.6,169.67c0-1.13.46-1.7,1.38-1.7s1.33.57,1.33,1.7-.44,1.7-1.33,1.7S727.6,170.8,727.6,169.67Zm0,27.84V176.87h2.71v20.64Z"/><path class="cls-1" d="M735.09,187.19a11.67,11.67,0,0,1,2.39-7.65,9.91,9.91,0,0,1,14.49,0,13.48,13.48,0,0,1,0,15.3,9.89,9.89,0,0,1-14.49,0A11.63,11.63,0,0,1,735.09,187.19Zm2.79,0a10.36,10.36,0,0,0,1.58,5.91,6.46,6.46,0,0,0,10.52,0,11.84,11.84,0,0,0,0-11.82,6,6,0,0,0-5.26-2.71,5.94,5.94,0,0,0-5.22,2.71A10.19,10.19,0,0,0,737.88,187.19Z"/><path class="cls-1" d="M759.21,197.51V181.73c0-2.13-.05-3.75-.16-4.86h2.47v3.69a6.79,6.79,0,0,1,6.72-4.17q7.08,0,7.08,7.93v13.19h-2.55V185q0-6.41-4.9-6.4a5.3,5.3,0,0,0-4.69,2.31,8.74,8.74,0,0,0-1.42,5.22v11.41Z"/><path class="cls-1" d="M258.63,135.71V67.91h17.19q28.28,0,28.27,20.49,0,11.17-7.58,16.71Q289.81,110,278,110h-5.73v25.74Zm13.6-57.12V99.28H277q12.92,0,12.92-10.1,0-10.59-12.92-10.59Z"/><path class="cls-1" d="M312.93,135.71v-50h13v50Zm.29-65.37a6.28,6.28,0,1,1,1.84,4.37A6,6,0,0,1,313.22,70.34Z"/><path class="cls-1" d="M351,109.48l-15.44-23.8h15.35L360.72,102l9.61-16.32h13.8l-15,23.8,16.9,26.23H370.53l-11.17-18.65-11.27,18.65H333.81Z"/><path class="cls-1" d="M432.79,122.3l1,10.59a34.89,34.89,0,0,1-17.19,4q-12.44,0-19.28-6.8t-6.85-19.14q0-11.46,5.83-18.65,6.21-7.77,17.39-7.77,13.11,0,18.84,8.55,5,7.28,5,21.66H402.88a12.72,12.72,0,0,0,4.27,9.27,14.73,14.73,0,0,0,10,3.36Q423.77,127.36,432.79,122.3Zm-29.91-16.51H425Q424.35,94,414.43,94,403.95,94,402.88,105.79Z"/><path class="cls-1" d="M448,135.71v-68L461,58v77.71Z"/><path class="cls-1" d="M502.83,135.71V67.91h21.76l16.12,51.38h.2L557,67.91h21.76v67.8h-13V79.76h-.19l-18.26,56h-13L516,79.76h-.2v56Z"/><path class="cls-1" d="M632.5,122.3l1,10.59a35,35,0,0,1-17.2,4q-12.43,0-19.28-6.8t-6.85-19.14q0-11.46,5.83-18.65,6.21-7.77,17.39-7.77,13.11,0,18.84,8.55,5,7.28,5,21.66H602.59a12.72,12.72,0,0,0,4.27,9.27,14.76,14.76,0,0,0,10,3.36Q623.47,127.36,632.5,122.3Zm-29.91-16.51h22.14Q624.05,94,614.14,94,603.66,94,602.59,105.79Z"/><path class="cls-1" d="M680.78,135.71v-5.63h-.19q-5.45,6.79-15.35,6.8-10.79,0-16.22-8.07-4.77-6.89-4.76-18.26T649,92.39q5.43-7.87,16.22-7.87a18.43,18.43,0,0,1,15,7h.19V67.71l13-9.71v77.71Zm-22.92-25.16a22.43,22.43,0,0,0,2.33,10.69q2.82,5.54,8.64,5.53a9.65,9.65,0,0,0,8.94-5.44,21.59,21.59,0,0,0,2.53-10.78A19.92,19.92,0,0,0,677.57,100q-3.2-5.34-8.93-5.34t-8.55,5.44A22.44,22.44,0,0,0,657.86,110.55Z"/><path class="cls-1" d="M707,135.71v-50h13v50Zm.29-65.37a6.28,6.28,0,1,1,1.84,4.37A6,6,0,0,1,707.3,70.34Z"/><path class="cls-1" d="M741.3,99.48l-.39-11.17a41.12,41.12,0,0,1,17.38-3.79q10.79,0,14.09,5,2.63,4,2.62,16.13V112q0,5.05.2,12.53.28,3.6.87,11.17H764.32q-.2-1-.59-7.48a16.12,16.12,0,0,1-6.54,6.31,18.58,18.58,0,0,1-9,2.34A19.11,19.11,0,0,1,736.08,133a13.14,13.14,0,0,1-5.47-11q0-10.1,8.55-14.28,5.93-2.91,16.8-2.91h7.19q0-7.57-.29-8.45c-.65-1.56-2.69-2.33-6.12-2.33A25.08,25.08,0,0,0,741.3,99.48ZM743,121.24q0,6.12,8.26,6.12,7.77,0,10.69-7.19a21.38,21.38,0,0,0,1.16-7.58h-5.63Q743,112.59,743,121.24Z"/><polygon class="cls-2" points="90.03 108.7 123.25 89.32 156.06 108.7 123.25 127.68 90.03 108.7"/><polygon class="cls-3" points="90.03 146.74 123.05 165.64 123.25 127.68 90.03 108.7 90.03 146.74"/><polygon class="cls-4" points="156.06 146.98 156.06 108.7 123.25 127.68 123.05 165.64 156.06 146.98"/><polygon class="cls-5" points="23.93 70.58 57.06 89.32 57.06 203.93 23.93 184.78 23.93 70.58"/><polygon class="cls-6" points="123.29 51.14 57.06 89.32 23.93 70.58 123.17 13 155.97 32.07 221.92 70.42 189.43 89.32 123.29 51.14"/><polygon class="cls-7" points="189.43 165.64 189.43 89.32 221.92 70.42 222.57 184.78 123.25 242.36 123.05 203.93 189.43 165.64"/><polygon class="cls-5" points="90.03 184.62 123.05 203.93 123.25 242.36 89.87 222.9 90.03 184.62"/><polygon class="cls-8" points="123.17 13 123.29 51.14 155.97 32.07 123.17 13"/><polygon class="cls-9" points="123.29 51.14 155.97 32.07 155.97 70 123.29 51.14"/><polygon class="cls-10" points="155.97 70 188.58 51.03 155.97 32.07 155.97 70"/><polygon class="cls-11" points="188.58 51.03 189.43 89.32 155.97 70 188.58 51.03"/><polygon class="cls-12" points="188.58 51.03 189.43 89.32 221.92 70.42 188.58 51.03"/><polygon class="cls-13" points="221.92 70.42 189.43 89.32 222.14 108.7 221.92 70.42"/><polygon class="cls-14" points="221.92 108.78 189.43 127.68 222.35 147.06 221.92 108.78"/><polygon class="cls-15" points="222.35 147.06 189.43 165.64 222.56 184.96 222.35 147.06"/><polygon class="cls-16" points="222.14 108.7 189.43 89.32 189.43 127.68 222.14 108.7"/><polygon class="cls-17" points="222.35 147.06 189.43 127.64 189.43 165.64 222.35 147.06"/><polygon class="cls-18" points="123.25 89.32 123.25 127.68 156.06 108.7 123.25 89.32"/><polygon class="cls-11" points="123.25 127.68 123.05 165.64 156.06 147.06 123.25 127.68"/><polyline class="cls-19" points="156.06 146.98 123.25 127.68 156.06 108.7"/><polygon class="cls-20" points="189.43 165.64 189.22 203.8 222.56 184.96 189.43 165.64"/><polygon class="cls-21" points="156.06 184.89 156.06 223.33 189.43 203.99 156.06 184.89"/><polygon class="cls-22" points="189.43 165.64 156.06 184.89 189.43 203.99 189.43 165.64"/><polygon class="cls-23" points="156.06 184.89 123.05 203.93 156.06 223.33 156.06 184.89"/><polygon class="cls-24" points="123.05 203.93 123.05 243 156.06 223.33 123.05 203.93"/><polygon class="cls-25" points="123.05 203.93 89.87 222.9 123.25 242.36 123.05 203.93"/><polygon class="cls-26" points="90.03 184.62 123.05 203.93 89.87 222.9 90.03 184.62"/><polygon class="cls-2" points="123.29 51.14 123.17 13 90.03 32.23 123.29 51.14"/><polygon class="cls-27" points="90.03 32.23 123.29 51.14 90.03 70.31 90.03 32.23"/><polygon class="cls-28" points="90.03 32.23 90.03 70.31 57.06 51.36 90.03 32.23"/><polygon class="cls-29" points="57.06 51.36 90.03 70.31 57.06 89.32 57.06 51.36"/><polygon class="cls-30" points="23.93 70.58 57.06 51.36 57.06 89.32 23.93 70.58"/><polygon class="cls-31" points="23.93 70.58 57.06 89.32 23.93 108.7 23.93 70.58"/><polygon class="cls-32" points="57.06 89.32 57.06 127.68 23.93 108.7 57.06 89.32"/><polygon class="cls-33" points="23.93 108.7 57.06 127.68 23.93 146.66 23.93 108.7"/><polygon class="cls-34" points="23.93 146.66 57.06 127.68 57.06 165.64 23.93 146.66"/><polygon class="cls-35" points="23.93 146.66 23.93 184.78 57.06 165.64 23.93 146.66"/><polygon class="cls-36" points="57.06 165.64 57.06 203.93 23.93 184.78 57.06 165.64"/><polygon class="cls-37" points="90.03 108.7 123.25 127.68 90.03 146.74 90.03 108.7"/></svg>